<?xml version="1.0" standalone="no"?>
<!DOCTYPE svg PUBLIC "-//W3C//DTD SVG 1.1//EN" "http://www.w3.org/Graphics/SVG/1.1/DTD/svg11.dtd">
<svg xmlns="http://www.w3.org/2000/svg">
<metadata>Generated by Fontastic.me</metadata>
<defs>
<font id="university-pixellove" horiz-adv-x="512">
<font-face font-family="university-pixellove" units-per-em="512" ascent="480" descent="-32"/>
<missing-glyph horiz-adv-x="512" />

<glyph unicode="&#97;" d="M256 512c-141 0-256-115-256-256 0-141 115-256 256-256 141 0 256 115 256 256 0 141-115 256-256 256z m92-140l-36 0c-14 0-25-11-25-25l0-19 61 0 0-63-61 0 0-183-82 0 0 183-41 0 0 63 41 0 0 34c0 37 30 68 68 68l75 0z"/>
<glyph unicode="&#98;" d="M255 277l-31-31 15-16 17 17 0-162 21 0 0 192z m129 192l0 43-21 0 0-43-214 0 0 43-21 0 0-43-107 0 0-469 470 0 0 469z m85-448l-426 0 0 320 426 0z m0 342l-426 0 0 85 85 0 0-43 21 0 0 43 214 0 0-43 21 0 0 43 85 0z"/>
<glyph unicode="&#99;" d="M256 256l-128 0 0-21 149 0 0 192-21 0z m0 239c132 0 239-107 239-239 0-132-107-239-239-239-132 0-239 107-239 239 0 132 107 239 239 239m0 17c-142 0-256-114-256-256 0-142 114-256 256-256 142 0 256 114 256 256 0 142-114 256-256 256z"/>
<glyph unicode="&#100;" d="M256 512c-142 0-256-114-256-256 0-142 114-256 256-256 142 0 256 114 256 256 0 142-114 256-256 256z m21-277l-149 0 0 21 128 0 0 171 21 0z"/>
<glyph unicode="&#101;" d="M511 317l-255 144-255-144 93-52c-9-21-14-44-14-68l0-40c2 0 5 0 7 0 14 0 27-1 40-4l0-92 16 0 0 88c47-14 86-43 112-83 35 55 97 91 167 91 4 0 6 0 8 0l0 40c0 24-4 47-14 68z m-255 125l223-125-223-125-98 55 112 71-14 8-113-70-109 61z m-159-268l0 24c0 22 4 41 12 59l20-12 0-75c-11 2-21 3-32 4z m319 23l0-24c-63-2-121-31-160-79-29 36-68 61-112 72l0 71 112-63 148 83c8-19 12-38 12-60z"/>
<glyph unicode="&#102;" d="M425 250l-169-95-112 63 0-53-16 5 0 57-41 23c-5-16-7-35-7-53l0-40c2 0 5 0 9 0 13 0 26-1 40-4l0-92 16 0 0 88c47-14 86-43 112-83 35 56 97 92 169 92 3 0 5 0 8 0l0 40c-2 17-5 35-9 52z m-169 211l-256-143 54-31 73-41 129 81 15-9-129-80 114-65 162 92 94 53z"/>
<glyph unicode="&#103;" d="M259 497c76 0 137-61 137-136 0-18-3-36-11-52l0-1c0-1-1-2-1-3l-1-2-124-267-124 267-1 1c0 1-1 2-1 3-6 17-10 35-10 52 0 76 60 138 136 138m0 15c-84 0-151-68-151-151 0-21 4-41 11-59 2-2 2-3 3-5l137-297 138 297c1 2 2 3 2 5l0 1c7 17 11 36 11 56 1 85-67 153-151 153z m0-91c33 0 61-27 61-60 0-34-28-61-61-61-33 0-61 27-61 61 0 33 28 60 61 60m0 15c-41 0-76-34-76-75 0-42 35-76 76-76 42 0 76 34 76 76 0 41-34 75-76 75z"/>
<glyph unicode="&#104;" d="M465 512l-368 0c-22 0-40-18-40-42l0-388-41 0 0-40c0-23 18-41 41-41l347 0c23 0 41 18 41 41l0 388 61 0 0 40c0 24-19 42-41 42z m-429-470l0 20 327 0 0-20c0-8 2-15 5-21l-311 0c-12 0-21 10-21 21z m368-21c-11 0-20 10-20 21l0 40-307 0 0 388c0 12 9 21 20 21l333 0c-3-7-5-13-5-21l0-428c0-11-10-21-21-21z m41 429l0 20c0 12 9 21 20 21 12 0 20-10 20-21l0-20z m-306-40l225 0 0-21-225 0z m0-61l225 0 0-20-225 0z m0-62l225 0 0-20-225 0z m0-61l225 0 0-20-225 0z m0-62l143 0 0-20-143 0z"/>
<glyph unicode="&#105;" d="M257 512c-142 0-256-115-256-256 0-141 114-256 256-256 141 0 256 115 256 256 0 141-115 256-256 256z m-49-430c-57 0-105 23-105 59 0 38 44 74 100 74 7 0 12 0 18 0-8 7-14 16-14 28 0 7 2 13 5 19-3 0-6-1-9-1-47 0-78 33-78 74 0 40 43 75 89 75l102 0-23-17-32 0c21-8 33-33 33-58 0-22-12-40-29-53-17-13-20-19-20-29 0-10 18-26 27-32 27-19 36-37 36-66 0-37-36-73-100-73z m182 246l0-62-21 0 0 62-61 0 0 20 61 0 0 62 21 0 0-62 61 0 0-20z m-189 67c-26 1-44-25-39-60 4-34 29-62 56-63 26-1 44 26 39 61-4 34-29 61-56 62z m13-190c-39 1-74-24-74-53 0-29 28-54 67-54 55 0 75 23 75 53 0 3-1 7-2 10-4 17-19 25-40 40-8 3-17 4-26 4z"/>
<glyph unicode="&#107;" d="M256 512c-141 0-256-115-256-256 0-141 115-256 256-256 141 0 256 115 256 256 0 141-115 256-256 256z m-102-399c-23 0-41 18-41 41 0 22 18 41 41 41 22 0 41-19 41-41 0-23-19-41-41-41z m102 0c0 38-15 74-42 101-27 28-63 43-101 43l0 58c111 0 202-90 202-202z m105 0c0 137-111 248-248 248l0 59c169 0 307-138 307-307z"/>
<glyph unicode="&#108;" d="M256 512c-141 0-256-115-256-256 0-141 115-256 256-256 141 0 256 115 256 256 0 141-115 256-256 256z m143-194c0-3 0-7 0-10 0-95-73-206-206-206-41 0-79 12-111 33 6-1 11-1 17-1 34 0 65 11 90 31-32 0-58 21-68 50 5-1 9-1 14-1 7 0 13 1 19 2-33 7-58 36-58 71l0 1c10-5 21-8 33-9-20 13-32 35-32 60 0 14 3 26 9 37 36-44 90-73 150-76-2 6-2 11-2 17 0 40 32 72 72 72 21 0 40-9 53-23 17 3 32 10 46 18-5-17-17-31-32-40 15 2 29 5 42 11-10-14-22-27-36-37z"/>
<glyph unicode="&#109;" d="M256 512c-141 0-256-115-256-256 0-141 115-256 256-256 141 0 256 115 256 256 0 141-115 256-256 256z m45-105l23 0 0-93c0-3 0-5 1-6 1-1 3-2 5-2 2 0 4 1 6 2 3 2 5 4 8 7l0 92 23 0 0-121-23 0 0 13c-5-5-9-9-14-11-4-3-9-4-13-4-5 0-9 2-12 5-3 4-4 9-4 17l0 101z m-52 3c9 0 17-3 23-8 6-6 9-14 9-23l0-63c0-10-3-19-9-25-5-5-14-8-24-8-10 0-18 3-24 9-6 6-9 14-9 24l0 64c0 9 3 16 9 22 6 6 14 8 25 8z m-94 41l17-66 1 0 16 66 27 0-30-97 0-68-26 0 0 65-31 100z m253-344c0-24-20-44-45-44-35-1-71-2-107-2-36 0-72 1-107 2-25 0-45 20-45 44-1 18-2 37-2 56 0 19 1 38 2 57 0 23 20 43 45 43 35 1 71 2 107 2 36 0 72-1 107-2 25 0 45-20 45-43 1-19 2-38 2-57 0-19-1-38-2-56z m-217 125l-65 0 0-20 22 0 0-114 21 0 0 114 22 0z m34-110c-2-2-4-4-6-5-2-2-4-2-5-2-2 0-3 0-4 1-1 1-1 3-1 5l0 76-19 0 0-83c0-5 1-10 4-13 2-3 5-4 9-4 4 0 7 1 11 3 4 2 7 5 11 9l0-11 19 0 0 99-19 0 0-75z m72 76c-3 0-6-1-8-2-3-2-6-4-8-7l0 43-19 0 0-134 19 0 0 8c2-3 5-5 8-7 2-1 6-2 9-2 6 0 10 2 13 6 3 3 4 9 4 16l0 54c0 8-1 15-4 19-3 4-8 6-14 6z m-1-77c0-3 0-5-1-6-2-2-3-2-6-2-1 0-3 0-4 1-1 0-3 1-4 3l0 61c1 2 2 3 3 3 2 1 3 1 4 1 3 0 5 0 6-2 1-2 2-4 2-8z m62 78c-9 0-15-2-21-8-5-5-8-12-8-21l0-44c0-9 3-17 8-22 4-6 11-8 19-8 10 0 17 2 21 7 5 5 7 13 7 23l0 8-19 0 0-7c0-6-1-10-2-12-1-1-3-2-6-2-3 0-5 1-7 3-1 2-1 5-1 11l0 18 35 0 0 25c0 10-2 17-7 22-4 5-11 7-19 7z m7-38l-16 0 0 10c0 4 0 7 2 8 1 2 3 3 6 3 3 0 5-1 6-3 1-1 2-4 2-8l0-10z m-117 228c-3 0-5-1-7-2-2-2-3-4-3-7l0-66c0-3 1-6 3-8 1-1 4-2 7-2 3 0 5 1 7 2 2 2 3 5 3 8l0 66c0 3-1 5-3 7-2 1-4 2-7 2z"/>
<glyph unicode="&#106;" d="M129 450l26 0 17-66 2 0 16 66 27 0-30-96 0-68-27 0 0 65z m85-70c0 9 4 17 10 22 6 5 15 9 25 9 9 0 17-4 23-9 6-6 10-14 10-22l0-63c0-11-4-18-9-25-6-6-14-8-24-8-10 0-19 3-25 9-6 7-9 14-9 25l0 62z m24-65c0-4 1-7 2-8 2-2 4-3 7-3 4 0 6 1 8 3 2 2 3 4 3 8l0 66c0 2-1 5-3 6-2 2-4 2-8 2-3 0-5-1-6-2-2-2-2-4-2-6l0-66z m129 92l0-121-24 0 0 13c-4-6-8-9-12-12-5-2-9-4-14-4-6 0-10 2-12 5-3 3-4 9-4 16l0 103 23 0 0-92c0-4 0-6 1-7 1-1 2-2 5-2 2 0 4 1 6 2 2 2 5 5 7 7l0 92z m-79-225c-1 0-2 0-4-1-1-1-2-2-5-3l0-61c2-2 4-3 5-3 1-1 3-1 4-1 2 0 4 1 5 2 1 1 2 3 2 7l0 51c0 3-1 5-2 7 0 1-2 2-5 2z m69 0c-3 0-5-1-6-3-1-2-2-4-2-8l0-11 16 0 0 11c0 4-1 7-2 8-1 2-4 3-6 3z m50 38c0 23-20 42-44 42-36 1-71 3-107 3-36 0-73-2-107-3-24 0-44-19-44-42-2-19-3-38-3-57 0-19 1-37 3-56 0-24 20-43 44-43 36-1 71-2 107-2 36 0 73 1 107 2 24 0 44 19 44 43 2 19 3 37 3 56 0 19-1 38-3 57z m-238-122l-22 0 0 114-21 0 0 19 64 0 0-19-21 0z m74 0l-18 0 0 11c-3-4-7-8-11-10-3-2-7-3-10-3-5 0-8 1-10 4-2 3-3 8-3 13l0 82 18 0 0-76c0-2 0-4 1-5 1-1 2-1 4-1 1 0 4 1 6 2 2 1 4 3 5 6l0 74 18 0z m73 20c0-7-1-12-5-16-3-3-7-5-12-5-4 0-7 1-10 2-3 1-5 3-7 7l0-8-20 0 0 133 20 0 0-42c2 3 5 5 7 6 3 1 5 2 9 2 6 0 10-2 13-6 4-4 5-11 5-18z m68 27l-35 0 0-18c0-5 1-9 2-11 1-2 3-3 6-3 4 0 6 1 7 2 1 2 2 6 2 12l0 6 18 0 0-7c0-10-2-18-7-23-5-5-12-7-22-7-8 0-15 3-19 9-5 5-7 12-7 22l0 44c0 8 2 16 7 21 5 5 12 9 20 9 9 0 15-3 19-8 5-5 7-12 7-21l0-27z m-128 351c132 0 240-108 240-240 0-132-108-240-240-240-132 0-240 108-240 240 0 132 108 240 240 240m0 16c-142 0-256-114-256-256 0-142 114-256 256-256 142 0 256 114 256 256 0 142-114 256-256 256z"/>
<glyph unicode="&#110;" d="M434 355c-13-5-27-9-41-12 14 9 26 24 32 40-14-9-30-14-46-17-13 14-32 22-53 22-39 0-72-32-72-72 0-6 1-11 2-16-60 3-113 32-149 75-7-10-11-23-11-36 0-25 13-47 32-60-12 0-23 4-33 9l0-1c0-35 24-64 58-70-7-3-13-3-20-3-4 0-9 0-14 1 10-28 37-49 68-50-25-19-56-31-90-31-5 0-12 0-17 1 32-20 70-32 111-32 133 0 206 110 206 206 0 4 0 7 0 10 15 8 26 21 37 36z m-179 140c132 0 239-108 239-239 0-131-107-239-239-239-131 0-239 107-239 239 0 132 108 239 239 239m0 16c-141 0-255-114-255-255 0-141 114-255 255-255 141 0 255 114 255 255 0 141-113 255-255 255z"/>
<glyph unicode="&#111;" d="M21 341l0-341 470 0 0 341z m256-256l-21 0 0 162-17-17-15 16 31 31 22 0z m107 384l0 43-21 0 0-43-214 0 0 43-21 0 0-43-107 0 0-106 470 0 0 106z m-235-64l-21 0 0 43 21 0z m235 0l-21 0 0 43 21 0z"/>
<glyph unicode="&#112;" d="M313 372l36 0 0 58-75 0c-37 0-68-31-68-68l0-35-41 0 0-62 41 0 0-184 82 0 0 185 62 0 0 63-62 0 0 19c-1 13 11 24 25 24z m-57 124c132 0 240-108 240-240 0-132-108-240-240-240-132 0-240 108-240 240 0 132 108 240 240 240m0 16c-142 0-256-114-256-256 0-142 114-256 256-256 142 0 256 114 256 256 0 142-114 256-256 256z"/>
<glyph unicode="&#113;" d="M207 98c-40 0-67 25-67 55 0 28 35 53 74 52 10 0 19-1 26-4 21-15 36-24 41-40 1-3 1-6 1-11 0-28-20-52-75-52z m11 174c-27 1-52 29-56 64-4 34 13 61 40 60 26-1 51-29 55-63 4-34-14-62-39-61z m54-50c-10 6-27 22-27 32 0 11 4 16 20 29 17 12 28 32 28 53 0 26-11 50-33 59l32 0 23 16-102 0c-46 0-88-34-88-75 0-41 31-74 78-74 3 0 6 0 9 0-3-5-5-11-5-19 0-12 6-20 14-28-6 0-12 0-18 0-57 0-101-36-101-72 0-36 48-60 105-60 65 0 100 36 100 73 0 29-8 47-35 66z m178 127l-61 0 0 61-20 0 0-61-62 0 0-22 62 0 0-60 20 0 0 60 61 0z m-194 147c132 0 239-108 239-239 0-131-107-240-239-240-131 0-239 108-239 239 0 131 108 240 239 240m0 16c-141 0-256-114-256-256 0-142 114-256 256-256 141 0 256 114 256 256 0 142-114 256-256 256z"/>
<glyph unicode="&#114;" d="M256 512c-142 0-256-114-256-256 0-142 114-256 256-256 142 0 256 114 256 256 0 142-114 256-256 256z m-71-369l-62 0 0 184 62 0z m-31 215c-22 0-36 15-36 33 0 20 14 34 37 34 21 0 35-14 35-34 0-18-14-33-36-33z m256-215l-62 0c0 0 0 110 0 113 0 17-14 31-31 31-17 0-31-14-31-31 0-2 0-113 0-113l-62 0 0 184 62 0 0-30c8 12 20 30 54 30 42 0 69-26 69-85l0-99z"/>
<glyph unicode="&#115;" d="M185 327l-62 0 0-183 62 0z m-31 31c22 0 36 15 36 33 0 20-14 34-35 34-22 0-37-14-37-34-1-18 13-33 36-33z m187-31c-34 0-46-18-54-30l0 30-62 0 0-183 62 0c0 0 0 110 0 113 0 17 14 31 31 31 17 0 31-14 31-31 0-3 0-113 0-113l62 0 0 99c-1 59-28 84-70 84z m-85 169c132 0 240-108 240-240 0-132-108-240-240-240-132 0-240 108-240 240 0 132 108 240 240 240m0 16c-142 0-256-114-256-256 0-142 114-256 256-256 142 0 256 114 256 256 0 142-114 256-256 256z"/>
<glyph unicode="&#116;" d="M256 496c132 0 240-108 240-240 0-132-108-240-240-240-132 0-240 108-240 240 0 132 108 240 240 240m0 16c-142 0-256-114-256-256 0-142 114-256 256-256 142 0 256 114 256 256 0 142-114 256-256 256z m-102-318c-23 0-41-18-41-40 0-23 18-41 41-41 22 0 40 18 40 41 0 22-18 40-40 40z m-41 122l0-59c38 0 75-15 101-43 27-26 42-63 42-101l59 0c1 111-91 203-202 203z m0 104l0-58c137 0 249-111 249-249l58 0c0 169-137 307-307 307z"/>
</font>
</defs>
</svg>
